<?xml version="1.0" standalone="no"?>
<!DOCTYPE svg PUBLIC "-//W3C//DTD SVG 20010904//EN"
 "http://www.w3.org/TR/2001/REC-SVG-20010904/DTD/svg10.dtd">
<svg version="1.0" xmlns="http://www.w3.org/2000/svg"
 width="32.000000pt" height="32.000000pt" viewBox="0 0 32.000000 32.000000"
 preserveAspectRatio="xMidYMid meet">

<g transform="translate(0.000000,32.000000) scale(0.100000,-0.100000)"
fill="#000000" stroke="none">
<path d="M107 133 c-4 -6 -16 -9 -27 -6 -11 3 -20 1 -20 -4 0 -10 105 -11 115
-1 3 3 -7 5 -24 4 -17 -1 -32 2 -34 8 -2 6 -6 6 -10 -1z"/>
<path d="M195 122 c10 -10 74 -12 80 -2 3 5 -14 9 -40 8 -25 0 -43 -3 -40 -6z"/>
</g>
</svg>
